<?xml version="1.0" standalone="no"?>
<!DOCTYPE svg PUBLIC "-//W3C//DTD SVG 20010904//EN"
 "http://www.w3.org/TR/2001/REC-SVG-20010904/DTD/svg10.dtd">
<svg version="1.0" xmlns="http://www.w3.org/2000/svg"
 width="969.000000pt" height="825.000000pt" viewBox="0 0 969.000000 825.000000"
 preserveAspectRatio="xMidYMid meet">

<g transform="translate(0.000000,825.000000) scale(0.100000,-0.100000)"
fill="#000000" stroke="none">
<path d="M4811 7594 c50 -75 89 -138 87 -140 -3 -2 -72 34 -154 80 -82 46
-150 80 -152 77 -1 -4 29 -76 68 -160 39 -85 69 -155 68 -157 -2 -1 -32 15
-68 36 -35 22 -66 37 -69 35 -2 -3 29 -53 69 -111 94 -137 99 -133 -120 -109
-74 8 -151 15 -170 15 l-35 0 55 -50 c30 -27 70 -60 87 -72 42 -30 41 -38 -4
-38 l-38 0 33 -26 c39 -31 40 -40 6 -48 -15 -4 -24 -9 -22 -12 3 -2 19 1 36 7
32 11 83 -5 66 -21 -5 -4 -85 -37 -179 -73 -551 -214 -686 -267 -1036 -402
-357 -138 -384 -151 -351 -158 19 -4 37 -5 40 -2 3 3 -3 5 -13 5 -50 0 -24 11
790 325 105 40 296 115 425 165 365 142 347 137 366 118 15 -15 11 -17 -42
-33 -60 -17 -130 -55 -194 -105 -19 -15 -68 -40 -108 -55 -39 -16 -70 -30 -68
-32 2 -2 27 5 55 17 28 11 55 20 60 20 5 0 7 -33 5 -72 -2 -47 0 -60 4 -38 l7
35 49 -90 c77 -140 115 -192 232 -310 95 -96 127 -121 254 -196 80 -48 178
-103 218 -123 l74 -37 -6 -37 c-3 -20 -8 -66 -11 -102 -15 -163 -72 -402 -149
-627 -25 -72 -59 -196 -77 -275 -30 -137 -107 -355 -133 -377 -18 -15 -223
-33 -296 -25 -46 4 -62 3 -55 -4 8 -9 175 -30 344 -44 29 -3 36 -8 44 -33 13
-45 35 -169 31 -176 -2 -3 -29 -13 -61 -22 -121 -32 -107 -35 -187 43 l-73 70
-154 10 c-219 14 -420 38 -521 61 -72 17 -98 29 -150 68 -116 88 -124 160 -43
386 17 50 42 123 54 163 12 39 26 72 31 72 16 0 171 -109 191 -134 27 -34 188
-160 196 -153 3 3 -22 31 -56 62 -33 32 -82 85 -107 118 -45 60 -95 156 -88
168 2 4 41 -7 86 -23 72 -25 178 -58 371 -113 26 -8 47 -10 47 -6 0 5 -66 27
-147 51 -230 66 -523 222 -768 410 -65 49 -128 90 -139 90 -12 -1 -68 -14
-126 -29 -315 -84 -379 -100 -420 -103 l-45 -3 -32 65 c-47 96 -56 154 -50
310 6 144 31 268 68 343 48 95 135 226 151 227 9 0 18 4 20 9 3 8 95 44 591
233 59 23 105 43 103 45 -2 2 -111 -37 -242 -87 -132 -51 -309 -119 -393 -151
-153 -59 -193 -78 -137 -63 l30 7 -22 -30 c-31 -44 -36 -47 -180 -103 -377
-145 -452 -170 -507 -170 -63 0 -71 13 -19 30 19 7 33 14 31 16 -4 4 -83 -23
-132 -46 -42 -19 -177 -40 -350 -55 -99 -9 -207 -23 -240 -32 -71 -18 -66 -18
-178 -3 -61 8 -97 9 -115 2 -15 -6 -42 -13 -61 -16 -19 -3 -48 -17 -65 -30
-18 -13 -40 -26 -51 -29 -11 -3 -3 -5 18 -6 21 0 36 3 32 8 -9 16 37 41 75 41
20 0 41 5 47 11 16 16 203 10 203 -7 0 -2 -20 -24 -45 -49 -50 -51 -65 -93
-65 -176 0 -53 3 -60 44 -106 24 -26 56 -55 70 -63 l27 -14 -38 -23 c-26 -16
-54 -23 -88 -23 -35 0 -69 -9 -113 -30 -75 -35 -83 -36 -107 -10 -17 19 -16
20 9 50 20 24 26 42 26 78 -1 44 -3 49 -39 71 -22 13 -44 35 -50 48 -10 22
-13 23 -26 9 -15 -15 -54 -31 -60 -24 -2 2 0 21 5 43 5 22 14 66 20 97 6 31
16 59 21 62 5 2 4 3 -3 2 -7 -1 -18 -25 -25 -52 -6 -27 -17 -76 -25 -109 l-14
-60 -259 -105 c-143 -58 -266 -109 -272 -113 -25 -16 -14 -68 22 -111 73 -87
73 -87 102 -80 16 3 141 48 278 100 138 52 255 94 261 94 7 0 17 -7 24 -15 19
-22 51 -18 122 15 41 19 79 30 108 30 29 0 62 9 93 26 27 14 55 23 63 20 8 -3
58 4 112 16 86 20 129 23 377 24 154 1 282 2 285 3 3 1 88 3 190 5 102 2 209
7 238 11 51 7 53 7 59 -16 3 -13 35 -80 70 -149 58 -113 68 -128 107 -148 l44
-24 153 17 c213 23 495 31 540 16 35 -11 35 -12 47 -94 6 -45 14 -96 18 -112
5 -29 0 -35 -78 -97 -186 -147 -293 -300 -281 -400 l5 -47 -39 -10 c-34 -9
-50 -7 -113 14 -134 45 -206 55 -412 55 -253 -1 -470 -21 -525 -48 -61 -31
-231 -162 -291 -225 l-54 -55 -151 6 c-287 10 -420 8 -470 -7 -45 -13 -47 -15
-31 -32 16 -17 14 -19 -30 -31 -25 -7 -46 -15 -46 -18 0 -4 12 -12 26 -19 17
-7 24 -17 20 -26 -3 -10 1 -15 12 -15 13 -1 10 -6 -10 -21 -36 -26 -35 -35 4
-48 30 -11 31 -11 13 -31 -20 -22 -21 -21 17 -38 19 -8 26 -16 22 -27 -5 -13
2 -15 52 -9 33 4 82 13 109 21 47 14 265 35 274 27 2 -2 -12 -34 -32 -71 -19
-37 -42 -92 -51 -122 -20 -68 -21 -222 -1 -311 8 -36 14 -74 15 -85 0 -24 -59
-60 -116 -71 -21 -4 -63 -15 -93 -25 -37 -13 -83 -19 -147 -19 -75 0 -107 -5
-166 -26 -101 -37 -112 -43 -99 -58 8 -10 7 -17 -3 -25 -8 -7 -13 -18 -10 -26
3 -7 -6 -22 -20 -33 -34 -26 -33 -30 9 -38 l34 -6 -25 -33 -25 -33 37 -7 c27
-5 34 -9 25 -18 -20 -20 -12 -37 19 -37 30 0 40 -13 20 -25 -22 -13 2 -22 47
-18 90 8 152 24 178 45 22 17 39 21 89 19 57 -2 67 1 117 35 42 29 68 39 115
44 45 5 75 16 117 44 32 20 61 36 65 36 5 0 24 -16 43 -36 31 -33 164 -148
232 -201 l28 -22 -35 -45 c-43 -57 -51 -103 -43 -250 10 -174 32 -239 118
-349 28 -36 41 -65 54 -125 27 -128 55 -215 81 -249 25 -33 51 -44 147 -60
l49 -8 95 -165 c53 -91 124 -217 159 -280 l63 -115 -9 -70 c-13 -99 -23 -125
-70 -195 -65 -96 -96 -127 -135 -134 -37 -7 -220 -139 -255 -184 -11 -13 -20
-36 -20 -51 0 -14 -7 -35 -15 -45 -20 -26 -20 -134 -1 -162 8 -11 43 -34 78
-50 63 -28 64 -29 263 -28 176 0 209 3 278 22 92 26 100 31 237 145 58 48 139
109 180 134 98 61 128 89 140 134 12 42 3 127 -15 149 -7 8 -17 42 -24 75 -10
55 -40 125 -90 215 -91 164 -146 298 -239 570 l-69 205 43 90 c64 134 65 150
13 254 -24 47 -45 89 -47 92 -2 4 21 12 50 19 67 16 162 52 236 89 41 20 85
31 156 40 126 15 371 62 551 107 224 56 390 113 524 181 72 36 139 63 156 63
16 0 67 9 113 20 46 11 96 20 112 20 16 0 83 -26 148 -59 66 -32 160 -73 208
-90 72 -26 108 -47 184 -107 211 -167 435 -294 791 -449 l174 -76 97 -99 c58
-60 131 -122 180 -154 99 -64 269 -151 356 -182 52 -18 78 -36 145 -102 99
-96 160 -136 251 -164 58 -18 84 -20 165 -15 l96 7 160 -101 c88 -56 189 -120
225 -143 36 -22 110 -77 165 -121 54 -44 104 -83 109 -86 5 -4 4 -26 -4 -55
-25 -99 -42 -406 -23 -425 20 -20 410 -152 518 -176 96 -21 126 -23 235 -18
112 6 286 27 333 41 14 4 17 17 16 77 -1 82 -11 129 -23 109 -10 -17 -26 -15
-26 3 0 8 7 15 15 15 8 0 15 4 15 9 0 18 -43 62 -78 80 -21 11 -62 49 -92 85
-30 36 -66 71 -80 78 -14 7 -31 22 -39 33 -8 11 -56 63 -106 115 -51 52 -96
102 -101 111 -5 9 -114 112 -243 230 -325 298 -371 339 -499 443 -76 61 -111
96 -108 106 3 8 12 36 22 63 16 47 16 47 -12 104 -26 51 -37 61 -103 97 -63
35 -80 51 -121 111 -62 91 -83 110 -159 140 -54 22 -79 42 -167 134 -94 98
-114 114 -213 165 -94 50 -164 100 -150 109 50 35 204 175 280 256 168 177
210 256 256 481 24 116 25 139 20 330 -4 181 -7 215 -29 288 l-25 82 56 0 c31
0 231 -7 446 -15 342 -13 391 -13 404 -1 10 11 14 39 14 109 0 101 -11 134
-46 141 -12 3 -213 12 -447 21 -234 8 -457 18 -497 21 l-72 6 -66 105 c-120
193 -213 299 -393 448 l-33 28 -82 -18 c-196 -42 -440 -148 -577 -250 l-87
-65 -96 25 c-102 26 -257 45 -363 45 l-64 0 0 99 c0 118 -15 148 -100 198 -30
18 -62 36 -70 41 -10 6 8 21 73 56 48 26 87 49 87 52 0 14 -323 -162 -405
-221 -90 -65 -303 -202 -363 -234 -37 -20 -50 -5 -14 15 120 68 268 160 365
227 61 43 153 100 202 128 301 167 517 321 809 579 88 78 138 115 142 108 18
-28 -341 -335 -576 -493 -80 -54 -147 -100 -150 -103 -17 -17 63 33 175 109
169 115 292 213 442 355 117 109 122 116 116 147 -7 37 -46 173 -58 201 -7 16
-1 15 39 -9 26 -15 49 -26 51 -23 2 2 -16 29 -41 58 -45 55 -187 271 -181 276
2 2 31 -6 66 -16 35 -11 88 -22 119 -25 65 -6 66 -7 -68 53 -38 17 -90 52
-125 84 -102 95 -138 192 -42 115 57 -46 128 -90 135 -83 3 3 -23 32 -58 65
-34 32 -60 63 -57 68 13 21 198 125 281 159 55 21 97 46 112 63 20 25 32 29
91 33 42 3 93 16 133 33 39 16 95 30 140 34 116 12 191 73 161 130 -20 36 -45
43 -109 30 -40 -9 -76 -9 -112 -3 -62 10 -77 29 -23 29 33 0 37 3 45 34 5 18
16 44 25 57 17 26 14 49 -11 106 -9 21 -12 39 -6 43 5 3 17 -14 28 -37 24 -54
53 -81 84 -76 20 3 23 8 23 48 0 25 -3 60 -7 78 -7 31 -6 32 25 33 26 1 22 3
-18 11 -42 7 -58 6 -92 -10 -53 -23 -124 -111 -147 -181 -16 -50 -16 -57 -1
-97 15 -41 17 -42 71 -49 31 -4 84 -4 117 0 55 7 60 6 49 -8 -9 -11 -11 -30
-7 -61 7 -43 6 -46 -20 -56 -14 -5 -48 -10 -75 -10 -29 0 -81 -12 -131 -30
-45 -17 -108 -33 -141 -37 l-58 -6 0 50 c0 85 -81 184 -173 213 -23 8 -44 15
-46 17 -2 2 25 33 60 70 35 38 78 85 94 106 22 28 43 41 80 52 28 7 43 14 35
14 -51 3 -89 -21 -154 -99 -68 -80 -134 -140 -155 -140 -6 0 -39 -12 -74 -26
-34 -14 -109 -36 -167 -48 -58 -13 -112 -26 -121 -30 -14 -6 -20 3 -34 43 -20
61 -91 130 -183 179 -34 18 -62 37 -62 42 0 4 12 11 26 14 15 4 24 9 22 11 -2
2 -21 -1 -41 -7 -31 -10 -43 -9 -72 5 -19 9 -35 20 -35 24 0 16 495 205 595
227 52 12 57 14 20 10 -65 -9 -99 -9 -121 1 -18 7 -18 8 1 16 16 7 14 8 -9 4
-38 -8 -297 -107 -292 -112 2 -3 57 16 121 41 116 46 157 54 184 37 10 -6 3
-12 -25 -21 -22 -7 -140 -53 -263 -102 -152 -60 -232 -87 -248 -83 -13 3 -23
9 -23 13 0 5 54 30 120 57 66 27 118 50 116 52 -2 2 -61 -19 -131 -48 l-128
-53 -83 43 c-109 55 -180 102 -288 189 -49 40 -92 70 -94 67 -3 -2 13 -36 36
-75 22 -38 39 -70 36 -70 -2 0 -108 52 -234 115 -126 63 -234 115 -240 115 -6
0 31 -61 81 -136z m2279 -259 c5 -13 11 -48 12 -77 3 -50 2 -53 -22 -53 -19 0
-30 10 -49 44 -17 30 -21 46 -13 49 20 6 13 22 -10 22 -18 0 -14 5 17 19 52
25 54 25 65 -4z m-106 -97 c17 -40 17 -45 2 -73 -9 -16 -20 -43 -24 -60 -10
-34 -41 -45 -62 -20 -10 12 -11 24 -1 55 10 33 16 40 39 41 27 2 27 2 2 6 -41
8 -45 20 -16 58 15 19 30 35 34 35 4 0 16 -19 26 -42z m-107 -130 c-3 -8 -6
-5 -6 6 -1 11 2 17 5 13 3 -3 4 -12 1 -19z m282 -110 c10 -26 -3 -58 -23 -58
-19 0 -30 48 -15 66 16 20 28 17 38 -8z m-994 -105 c57 -20 83 -48 96 -108 14
-64 7 -95 -29 -137 l-29 -31 -20 29 c-18 26 -91 195 -108 252 -6 21 -4 22 22
16 15 -4 46 -13 68 -21z m-451 -471 c8 -104 8 -103 -58 -49 l-30 24 34 78 c39
90 44 86 54 -53z m131 -146 c-23 -47 -24 -56 -15 -119 6 -37 17 -84 25 -104
31 -75 10 -107 -66 -102 -43 4 -59 -9 -59 -48 0 -13 -8 -24 -20 -28 -12 -4
-20 -15 -20 -29 0 -16 -10 -27 -32 -37 -28 -12 -33 -20 -36 -54 -4 -47 -37
-87 -67 -83 -19 3 -20 9 -19 188 1 179 13 291 46 403 15 49 51 53 67 7 18 -54
60 -49 61 8 0 35 18 16 25 -26 4 -20 11 -50 15 -67 5 -16 14 -56 20 -88 6 -31
16 -55 21 -52 5 4 9 55 9 115 0 77 4 110 13 113 9 4 9 7 -1 14 -10 8 -10 25
-2 84 17 119 21 123 42 35 l18 -79 -25 -51z m-739 119 l26 -35 -7 -182 -8
-183 -17 50 c-15 46 -20 50 -51 53 -39 4 -84 43 -130 111 -51 78 -33 148 50
195 66 37 104 34 137 -9z m557 -66 c23 -17 33 -29 22 -26 -11 3 -35 8 -52 12
-36 7 -36 7 -27 29 8 21 7 21 57 -15z m-923 -162 c0 -54 -6 -60 -36 -40 -29
19 -29 23 -3 57 29 37 39 33 39 -17z m-2006 -34 c-25 -40 -37 -49 -87 -66 -32
-10 -56 -21 -54 -23 2 -2 25 3 51 12 26 9 49 15 51 13 1 -2 -4 -21 -12 -42
l-15 -37 -67 4 -66 5 59 -9 c32 -5 61 -12 64 -15 3 -2 -3 -42 -14 -87 -13 -60
-19 -122 -19 -225 l0 -141 -70 -8 c-38 -3 -142 -6 -230 -6 -160 0 -160 0 -216
31 -83 46 -106 71 -114 126 -23 148 39 254 175 302 64 23 96 27 218 31 78 2
142 8 142 12 0 4 12 11 26 14 15 4 24 9 22 12 -3 2 -24 -3 -48 -11 -27 -10
-77 -15 -139 -14 -112 0 -132 -12 169 103 107 41 197 72 199 70 2 -2 -9 -25
-25 -51z m2540 -321 c-2 -2 -22 14 -46 36 l-42 40 16 69 c9 38 27 96 40 128
l23 60 5 -165 c3 -91 5 -167 4 -168z m-380 236 c8 -43 -1 -47 -35 -19 l-24 19
19 38 c16 34 19 37 26 19 4 -11 10 -37 14 -57z m146 37 c33 -6 37 -12 59 -68
24 -64 38 -137 27 -137 -18 0 -196 105 -196 116 0 10 13 52 35 113 5 11 8 11
23 -2 9 -8 33 -18 52 -22z m-250 4 c0 -11 -4 -18 -10 -14 -5 3 -7 12 -3 20 7
21 13 19 13 -6z m624 -154 c4 -22 18 -84 32 -139 14 -54 23 -100 20 -103 -6
-7 -90 43 -111 67 -20 22 -17 50 17 168 22 76 30 78 42 7z m-178 -112 c41 -34
59 -73 34 -73 -6 0 -29 -8 -50 -19 l-39 -19 2 74 c1 41 3 74 5 74 2 0 23 -17
48 -37z m-66 -40 c0 -149 -55 -401 -150 -683 -32 -96 -73 -231 -90 -300 -17
-69 -36 -129 -41 -135 -5 -5 -9 -24 -9 -43 0 -18 -17 -68 -37 -110 -20 -42
-40 -88 -44 -102 -6 -23 -7 -23 -8 7 0 17 19 81 44 142 25 63 59 177 79 263
19 84 55 212 80 285 79 230 129 452 151 676 4 37 11 67 16 67 5 0 9 -30 9 -67z
m1260 2 c-46 -56 -369 -324 -526 -437 -122 -88 -292 -194 -299 -186 -1 2 -5
80 -8 175 l-5 172 122 48 c90 35 700 240 725 243 2 0 -2 -7 -9 -15z m-1040
-67 l50 -33 0 -157 c0 -86 -5 -179 -11 -206 -13 -64 -70 -144 -211 -299 -99
-109 -115 -123 -144 -123 -18 0 -36 -4 -39 -10 -4 -6 5 -10 20 -10 14 0 23 -4
20 -10 -11 -18 -126 -102 -132 -97 -9 10 16 103 83 302 34 105 73 231 86 280
33 125 57 159 138 190 62 24 170 105 142 105 -8 0 -33 -17 -57 -38 -25 -22
-67 -45 -99 -55 -30 -10 -63 -28 -72 -40 -15 -21 -16 -20 -9 28 4 28 11 52 16
53 5 2 9 20 9 41 0 46 14 66 63 86 42 17 44 15 49 -45 4 -52 22 -41 31 18 5
29 10 52 13 52 2 0 27 -15 54 -32z m1708 -816 c99 -89 205 -201 223 -234 7
-13 -46 32 -117 98 -71 67 -145 136 -166 153 l-36 32 -79 -16 c-43 -9 -107
-25 -143 -37 -100 -32 -295 -128 -389 -191 -84 -57 -101 -65 -101 -48 0 13
144 117 203 147 134 68 432 171 505 174 7 0 52 -35 100 -78z m-3458 36 c0 -7
-23 -28 -51 -47 -112 -76 -245 -245 -274 -348 -9 -33 73 -116 175 -177 45 -26
79 -50 77 -52 -2 -2 -22 2 -44 10 -121 43 -225 122 -242 183 -9 31 -6 44 21
97 17 33 45 81 62 105 29 41 252 241 268 241 5 0 8 -6 8 -12z m1771 -9 c7 -14
9 -45 5 -89 -13 -127 -40 -197 -148 -381 -41 -70 -59 -90 -95 -110 -26 -13
-56 -41 -70 -62 -18 -29 -41 -47 -89 -68 -36 -17 -78 -32 -95 -36 -26 -5 -29
-3 -29 20 0 14 -4 36 -9 49 -5 13 -11 46 -15 73 l-6 50 62 29 c117 55 349 314
348 387 0 8 -15 -12 -32 -44 -34 -63 -122 -151 -209 -209 -51 -33 -176 -84
-185 -75 -2 2 6 26 18 53 11 27 23 43 25 37 7 -19 79 -17 87 3 12 31 6 97 -11
116 -9 10 -14 20 -12 21 2 2 78 48 169 102 91 54 185 110 210 125 55 35 66 36
81 9z m550 -219 c216 -22 599 -146 694 -225 26 -21 14 -17 -122 44 -61 28
-151 62 -200 76 -153 45 -371 85 -463 85 -90 0 -130 7 -130 21 0 12 95 11 221
-1z m-1021 -24 c0 -3 -4 -8 -10 -11 -5 -3 -10 -1 -10 4 0 6 5 11 10 11 6 0 10
-2 10 -4z m18 -30 c7 -4 12 -18 12 -30 0 -19 -4 -22 -25 -18 -20 3 -25 0 -25
-16 0 -24 23 -35 39 -19 9 9 11 8 6 -5 -9 -23 -60 -24 -69 -2 -7 19 -8 68 -1
86 6 14 43 17 63 4z m645 -37 c-54 -91 -197 -215 -336 -289 -140 -76 -101 -26
66 84 62 41 150 110 197 154 47 45 86 81 88 82 2 0 -5 -14 -15 -31z m-2652
-129 c30 -6 92 -22 139 -36 76 -24 83 -28 62 -37 -18 -8 -51 -4 -150 20 -167
41 -228 45 -510 33 l-237 -11 -85 -39 c-72 -34 -80 -36 -55 -15 67 56 126 72
335 88 108 8 452 6 501 -3z m329 -63 c0 -7 -45 -29 -103 -50 -89 -32 -201 -88
-402 -201 l-50 -28 40 35 c81 73 280 181 425 233 77 27 90 28 90 11z m4283
-44 c-7 -2 -19 -2 -25 0 -7 3 -2 5 12 5 14 0 19 -2 13 -5z m-2702 -96 c21 -99
35 -277 21 -277 -5 0 -12 29 -16 64 -6 57 -31 187 -51 269 -7 25 -5 28 11 25
15 -2 23 -20 35 -81z m3442 66 c-18 -2 -48 -2 -65 0 -18 2 -4 4 32 4 36 0 50
-2 33 -4z m228 -20 c12 -16 12 -17 -1 -6 -8 6 -26 13 -40 16 l-25 4 26 2 c15
0 33 -7 40 -16z m-106 -2934 c22 -24 6 -13 -35 25 -109 101 -134 127 -65 69
33 -28 78 -71 100 -94z m105 -94 c30 -30 52 -55 49 -55 -2 0 -29 25 -59 55
-30 30 -52 55 -49 55 2 0 29 -25 59 -55z m-5835 -25 c9 -16 13 -30 11 -30 -3
0 -12 14 -21 30 -9 17 -13 30 -11 30 3 0 12 -13 21 -30z m45 -84 c0 -12 -5 -7
-19 24 -11 24 -11 24 3 6 9 -11 16 -24 16 -30z m5950 -43 c0 -8 -9 0 -50 45
l-45 47 48 -45 c26 -24 47 -45 47 -47z m170 -161 c-6 -2 -12 -2 -13 0 -1 2
-36 39 -77 82 l-75 79 88 -79 c48 -43 83 -80 77 -82z m-6095 98 c3 -5 1 -10
-4 -10 -6 0 -11 5 -11 10 0 6 2 10 4 10 3 0 8 -4 11 -10z m551 -83 c35 -74 60
-183 49 -217 -3 -10 -25 -35 -48 -56 l-41 -38 -7 25 c-13 47 -6 359 8 359 2 0
20 -33 39 -73z m-563 18 c-3 -9 -8 -14 -10 -11 -3 3 -2 9 2 15 9 16 15 13 8
-4z m221 -15 c51 -20 93 -55 114 -95 15 -32 32 -120 38 -211 l7 -82 -66 -66
c-68 -69 -77 -74 -77 -53 0 25 -52 123 -83 155 -35 36 -132 71 -254 92 l-72
12 48 61 c26 34 58 80 71 102 24 42 45 63 95 96 36 24 95 20 179 -11z m6025
-146 c57 -58 100 -108 98 -111 -3 -2 -59 -6 -124 -7 -139 -2 -203 -22 -276
-86 -35 -31 -48 -51 -61 -98 -9 -32 -16 -68 -16 -80 0 -25 -13 -27 -59 -11
l-31 11 0 91 c1 195 29 304 91 348 40 28 121 47 210 48 l66 1 102 -106z m-634
-208 c6 -108 5 -118 -10 -112 -9 3 -21 6 -27 6 -12 0 -5 238 8 280 7 23 9 22
15 -15 3 -22 10 -93 14 -159z m-5983 -57 c3 -9 9 -9 26 0 16 8 39 9 89 1 101
-16 132 -55 71 -88 -44 -24 -68 -49 -67 -69 0 -14 2 -13 9 5 8 18 17 22 49 22
22 0 52 -5 67 -10 19 -7 30 -7 40 1 23 19 16 37 -21 50 -28 10 -33 16 -23 25
23 21 90 24 128 6 43 -21 61 -55 58 -107 -3 -33 -7 -41 -25 -43 -23 -3 -31 12
-13 23 12 8 13 25 2 25 -5 0 -14 -11 -20 -24 -13 -30 -64 -46 -143 -46 -55 0
-82 12 -92 40 -4 12 -6 12 -6 -2 -1 -20 -33 -32 -61 -23 -28 9 -25 25 5 25 21
0 25 5 25 30 0 23 -4 30 -20 30 -41 0 -23 20 76 88 11 7 3 5 -16 -4 -41 -20
-110 -74 -110 -86 0 -4 14 -8 30 -8 23 0 30 -4 30 -20 0 -26 -44 -28 -59 -2
-9 15 -10 13 -8 -8 2 -21 -3 -25 -30 -28 -19 -2 -33 1 -33 7 0 6 11 11 25 11
20 0 25 5 25 26 0 17 -6 28 -20 31 -40 11 -18 43 55 81 22 12 36 21 31 22 -4
0 -31 -12 -58 -27 -50 -27 -68 -53 -68 -98 0 -26 -16 -35 -44 -25 -19 6 -29
34 -21 57 7 20 37 3 32 -18 -3 -11 -1 -19 4 -19 18 0 8 38 -13 52 -28 19 -16
37 42 63 22 10 38 20 36 22 -2 3 -22 -5 -45 -16 -51 -26 -59 -26 -35 0 31 35
88 51 96 28z m6927 -39 c54 -36 79 -70 51 -70 -5 0 -10 -11 -10 -24 0 -18 6
-26 23 -29 19 -3 20 -4 5 -11 -26 -12 -48 0 -48 26 -1 13 -7 34 -14 47 -13 24
-91 81 -110 81 -6 -1 5 -9 24 -19 19 -11 45 -30 58 -44 l23 -25 -26 -6 c-37
-10 -31 -50 8 -54 40 -5 27 -27 -16 -27 -19 0 -39 -3 -43 -7 -9 -10 -46 -10
-68 -2 -10 4 -16 18 -16 36 0 42 -23 81 -67 112 l-38 28 38 -34 c42 -37 45
-45 20 -51 -13 -4 -12 -5 5 -6 25 -1 43 -32 23 -39 -11 -4 -11 -6 -1 -12 7 -4
10 -15 7 -24 -5 -11 -19 -16 -52 -16 -47 0 -47 0 -40 30 10 44 -3 85 -30 100
-31 17 -32 44 -3 64 17 12 49 16 130 16 l107 0 60 -40z m-367 -4 c20 -14 14
-26 -13 -26 -9 0 -27 -8 -39 -18 -21 -17 -22 -19 -5 -36 11 -10 24 -14 34 -10
39 17 89 27 104 21 22 -8 22 -55 1 -85 -13 -20 -24 -22 -95 -22 -74 0 -82 2
-106 28 -17 17 -24 21 -20 10 7 -20 -9 -24 -32 -9 -18 12 -8 97 16 123 31 34
123 49 155 24z m67 -42 c6 -5 3 -7 -53 -26 -52 -18 -66 -16 -66 7 0 25 98 41
119 19z m-6353 -19 c29 -22 3 -33 -51 -21 -34 8 -42 13 -33 23 14 17 60 16 84
-2z m6664 -35 c0 -15 -7 -20 -25 -20 -24 0 -34 18 -18 33 15 15 43 7 43 -13z
m-6942 -13 c2 -12 -3 -17 -17 -17 -15 0 -21 6 -21 21 0 25 33 22 38 -4z m-131
-104 c-2 -16 -4 -5 -4 22 0 28 2 40 4 28 2 -13 2 -35 0 -50z"/>
<path d="M5600 6240 c0 -9 69 -34 76 -28 2 3 -14 12 -36 21 -22 8 -40 12 -40
7z"/>
<path d="M5740 5976 c0 -2 9 -6 20 -9 11 -3 18 -1 14 4 -5 9 -34 13 -34 5z"/>
<path d="M4956 6360 c-37 -41 -43 -64 -26 -90 8 -11 9 -8 4 12 -4 21 2 34 31
67 43 47 71 52 103 18 27 -29 28 -68 2 -92 -16 -14 -19 -26 -14 -52 7 -39 -4
-42 -33 -10 -31 34 -34 53 -11 82 11 14 18 28 16 30 -2 3 -15 -9 -27 -26 -20
-26 -21 -34 -11 -59 6 -15 24 -40 39 -54 l28 -27 13 31 c10 25 10 33 -1 46
-12 15 -11 19 9 32 31 20 31 80 -1 110 -37 35 -78 29 -121 -18z"/>
<path d="M9174 545 c39 -37 47 -48 35 -56 -11 -7 -11 -9 4 -9 22 0 35 -29 18
-40 -10 -5 -9 -9 3 -13 11 -5 16 -1 16 13 0 38 -19 68 -72 109 l-53 43 49 -47z"/>
<path d="M9060 469 c0 -5 5 -7 10 -4 6 3 10 8 10 11 0 2 -4 4 -10 4 -5 0 -10
-5 -10 -11z"/>
<path d="M9167 474 c-8 -9 11 -44 24 -44 6 0 3 7 -6 16 -13 14 -14 19 -3 25 7
5 8 9 2 9 -6 0 -14 -3 -17 -6z"/>
<path d="M9070 440 c0 -5 5 -10 11 -10 5 0 7 5 4 10 -3 6 -8 10 -11 10 -2 0
-4 -4 -4 -10z"/>
<path d="M6350 7580 c98 -5 106 -11 30 -24 -14 -2 3 -2 38 0 34 3 62 3 62 0 0
-2 -54 -26 -120 -52 -66 -26 -118 -49 -116 -51 5 -5 296 111 296 118 0 9 -125
19 -215 17 -80 -2 -80 -2 25 -8z"/>
<path d="M6208 7573 c6 -2 18 -2 25 0 6 3 1 5 -13 5 -14 0 -19 -2 -12 -5z"/>
<path d="M7010 7450 c-8 -5 -35 -10 -59 -10 -34 0 -54 -8 -91 -35 -26 -19 -63
-42 -81 -50 -19 -8 -27 -14 -19 -15 13 0 68 30 140 76 14 9 -6 -14 -44 -50
-37 -36 -63 -66 -58 -66 6 0 40 26 74 58 47 44 78 63 121 77 31 10 57 19 57
21 0 8 -25 4 -40 -6z"/>
<path d="M7115 7440 c22 -12 52 -19 68 -17 33 4 36 -14 7 -43 -11 -11 -16 -20
-11 -20 14 0 41 41 41 62 0 19 -13 23 -95 32 l-50 6 40 -20z m72 -6 c-3 -3
-12 -4 -19 -1 -8 3 -5 6 6 6 11 1 17 -2 13 -5z"/>
<path d="M6200 7440 c-8 -5 -10 -10 -5 -10 6 0 17 5 25 10 8 5 11 10 5 10 -5
0 -17 -5 -25 -10z"/>
<path d="M6150 7420 c-8 -5 -10 -10 -5 -10 6 0 17 5 25 10 8 5 11 10 5 10 -5
0 -17 -5 -25 -10z"/>
<path d="M6100 7400 c-8 -5 -10 -10 -5 -10 6 0 17 5 25 10 8 5 11 10 5 10 -5
0 -17 -5 -25 -10z"/>
<path d="M5978 7352 c-49 -19 -86 -37 -84 -39 4 -4 186 67 186 73 0 7 -14 3
-102 -34z"/>
<path d="M5850 7300 c-8 -5 -10 -10 -5 -10 6 0 17 5 25 10 8 5 11 10 5 10 -5
0 -17 -5 -25 -10z"/>
<path d="M4375 6889 c-54 -22 -75 -36 -35 -24 37 12 107 44 95 44 -5 0 -32 -9
-60 -20z"/>
<path d="M4217 6828 c-42 -17 -75 -33 -73 -35 3 -4 157 55 165 63 10 10 -19 1
-92 -28z"/>
<path d="M4085 6775 c-25 -12 -26 -14 -5 -9 28 7 60 23 45 23 -5 0 -23 -6 -40
-14z"/>
<path d="M4005 6745 c-25 -12 -26 -14 -5 -9 28 7 60 23 45 23 -5 0 -23 -6 -40
-14z"/>
<path d="M3905 6709 c-54 -22 -75 -36 -35 -24 37 12 107 44 95 44 -5 0 -32 -9
-60 -20z"/>
<path d="M3747 6648 c-42 -17 -75 -33 -73 -35 3 -4 157 55 165 63 10 10 -19 1
-92 -28z"/>
<path d="M4140 6640 c-8 -5 -10 -10 -5 -10 6 0 17 5 25 10 8 5 11 10 5 10 -5
0 -17 -5 -25 -10z"/>
<path d="M4075 6615 c-25 -12 -26 -14 -5 -9 28 7 60 23 45 23 -5 0 -23 -6 -40
-14z"/>
<path d="M3615 6595 c-25 -12 -26 -14 -5 -9 28 7 60 23 45 23 -5 0 -23 -6 -40
-14z"/>
<path d="M3995 6585 c-25 -12 -26 -14 -5 -9 28 7 60 23 45 23 -5 0 -23 -6 -40
-14z"/>
<path d="M3818 6518 c-71 -28 -126 -53 -124 -55 3 -4 257 95 265 103 11 11
-25 -1 -141 -48z"/>
<path d="M3615 6439 c-54 -22 -75 -36 -35 -24 37 12 107 44 95 44 -5 0 -32 -9
-60 -20z"/>
<path d="M4303 6400 c0 -25 2 -35 4 -22 2 12 2 32 0 45 -2 12 -4 2 -4 -23z"/>
<path d="M3505 6395 c-25 -12 -26 -14 -5 -9 28 7 60 23 45 23 -5 0 -23 -6 -40
-14z"/>
<path d="M3328 6328 c-71 -28 -126 -53 -124 -55 3 -4 257 95 265 103 11 11
-25 -1 -141 -48z"/>
<path d="M4312 6315 c0 -16 2 -22 5 -12 2 9 2 23 0 30 -3 6 -5 -1 -5 -18z"/>
<path d="M3998 6293 c17 -2 47 -2 65 0 17 2 3 4 -33 4 -36 0 -50 -2 -32 -4z"/>
<path d="M2903 6283 c9 -2 23 -2 30 0 6 3 -1 5 -18 5 -16 0 -22 -2 -12 -5z"/>
<path d="M3908 6283 c12 -2 30 -2 40 0 9 3 -1 5 -23 4 -22 0 -30 -2 -17 -4z"/>
<path d="M4118 6283 c12 -2 30 -2 40 0 9 3 -1 5 -23 4 -22 0 -30 -2 -17 -4z"/>
<path d="M3848 6273 c6 -2 18 -2 25 0 6 3 1 5 -13 5 -14 0 -19 -2 -12 -5z"/>
<path d="M4188 6273 c6 -2 18 -2 25 0 6 3 1 5 -13 5 -14 0 -19 -2 -12 -5z"/>
<path d="M4321 6273 c-1 -6 -11 -14 -23 -16 -21 -4 -21 -4 -3 -6 19 -1 23 -15
44 -143 13 -79 26 -147 30 -153 4 -5 15 -39 25 -75 72 -266 252 -630 382 -775
31 -35 35 -37 29 -15 -6 27 -65 447 -65 467 0 7 -36 52 -80 100 -166 181 -294
399 -324 553 -8 41 -15 70 -15 63z"/>
<path d="M2725 6255 c-25 -12 -26 -14 -5 -9 28 7 60 23 45 23 -5 0 -23 -6 -40
-14z"/>
<path d="M3140 6256 c-22 -9 -43 -10 -58 -5 -13 5 -29 9 -35 8 -12 0 37 -20
83 -33 18 -5 21 -5 11 3 -12 7 -8 13 20 24 42 19 27 20 -21 3z"/>
<path d="M3785 6260 c-13 -5 -14 -9 -5 -9 8 0 24 4 35 9 13 5 14 9 5 9 -8 0
-24 -4 -35 -9z"/>
<path d="M4238 6263 c6 -2 18 -2 25 0 6 3 1 5 -13 5 -14 0 -19 -2 -12 -5z"/>
<path d="M2645 6225 c-25 -12 -26 -14 -5 -9 28 7 60 23 45 23 -5 0 -23 -6 -40
-14z"/>
<path d="M3685 6225 c-25 -12 -26 -14 -5 -9 28 7 60 23 45 23 -5 0 -23 -6 -40
-14z"/>
<path d="M3478 6213 c7 -3 16 -2 19 1 4 3 -2 6 -13 5 -11 0 -14 -3 -6 -6z"/>
<path d="M3531 6216 c10 -9 69 -36 69 -32 0 6 -55 36 -66 36 -4 0 -5 -2 -3 -4z"/>
<path d="M2545 6189 c-54 -22 -75 -36 -35 -24 37 12 107 44 95 44 -5 0 -32 -9
-60 -20z"/>
<path d="M3191 6206 c2 -2 33 -16 67 -30 l64 -27 69 27 c38 15 67 29 65 31 -2
2 -33 -8 -69 -22 l-65 -26 -61 25 c-56 24 -80 32 -70 22z"/>
<path d="M3620 6200 c-8 -5 -10 -10 -5 -10 6 0 17 5 25 10 8 5 11 10 5 10 -5
0 -17 -5 -25 -10z"/>
<path d="M2387 6128 c-42 -17 -75 -33 -73 -35 3 -4 157 55 165 63 10 10 -19 1
-92 -28z"/>
<path d="M3288 6080 c-25 -40 -41 -99 -35 -136 12 -74 137 -205 309 -324 56
-38 106 -70 112 -70 6 0 -59 71 -144 158 -175 178 -206 224 -218 328 -7 68 -8
69 -24 44z"/>
<path d="M2255 6075 c-25 -12 -26 -14 -5 -9 28 7 60 23 45 23 -5 0 -23 -6 -40
-14z"/>
<path d="M2175 6045 c-25 -12 -26 -14 -5 -9 28 7 60 23 45 23 -5 0 -23 -6 -40
-14z"/>
</g>
</svg>
